<svg width="1200" height="800" viewBox="0 0 1200 800" fill="none" xmlns="http://www.w3.org/2000/svg">
  <rect width="1200" height="800" fill="#1A1A2E"/>
  
  <!-- Social media frames -->
  <!-- Instagram post -->
  <rect x="200" y="150" width="300" height="300" rx="8" fill="#2A2A45" stroke="#E4405F" stroke-width="2" stroke-opacity="0.5"/>
  <circle cx="350" cy="180" r="15" fill="#E4405F" fill-opacity="0.5"/>
  <rect x="230" y="220" width="240" height="180" rx="4" fill="#E4405F" fill-opacity="0.2"/>
  <rect x="230" y="420" width="150" height="15" rx="2" fill="#E4405F" fill-opacity="0.4"/>
  
  <!-- Facebook ad -->
  <rect x="550" y="150" width="380" height="200" rx="8" fill="#2A2A45" stroke="#4267B2" stroke-width="2" stroke-opacity="0.5"/>
  <rect x="570" y="170" width="180" height="15" rx="2" fill="#4267B2" fill-opacity="0.4"/>
  <rect x="570" y="195" width="340" height="110" rx="4" fill="#4267B2" fill-opacity="0.2"/>
  <rect x="570" y="315" width="100" height="20" rx="10" fill="#4267B2" fill-opacity="0.6"/>
  
  <!-- Email newsletter -->
  <rect x="550" y="400" width="380" height="300" rx="8" fill="#2A2A45" stroke="#FF9800" stroke-width="2" stroke-opacity="0.5"/>
  <rect x="570" y="420" width="340" height="30" rx="4" fill="#FF9800" fill-opacity="0.4"/>
  <rect x="570" y="460" width="340" height="15" rx="2" fill="#FF9800" fill-opacity="0.2"/>
  <rect x="570" y="485" width="320" height="15" rx="2" fill="#FF9800" fill-opacity="0.2"/>
  <rect x="570" y="510" width="340" height="100" rx="4" fill="#FF9800" fill-opacity="0.1"/>
  <rect x="570" y="620" width="120" height="30" rx="15" fill="#FF9800" fill-opacity="0.6"/>
  <rect x="570" y="660" width="180" height="10" rx="2" fill="#FF9800" fill-opacity="0.15"/>
  
  <!-- TikTok video -->
  <rect x="200" y="500" width="280" height="250" rx="8" fill="#2A2A45" stroke="#00F2EA" stroke-width="2" stroke-opacity="0.5"/>
  <rect x="220" y="520" width="240" height="180" rx="4" fill="#00F2EA" fill-opacity="0.1"/>
  <circle cx="340" cy="610" r="30" stroke="#00F2EA" stroke-width="2" stroke-opacity="0.5"/>
  <rect x="220" y="710" width="60" height="20" rx="10" fill="#00F2EA" fill-opacity="0.3"/>
  <rect x="290" y="710" width="60" height="20" rx="10" fill="#FF0050" fill-opacity="0.3"/>
  
  <!-- Decorative elements -->
  <circle cx="100" cy="170" r="50" fill="url(#paint0_radial_0_1)" fill-opacity="0.3"/>
  <circle cx="1100" cy="600" r="80" fill="url(#paint1_radial_0_1)" fill-opacity="0.2"/>
  <circle cx="980" cy="200" r="60" fill="url(#paint2_radial_0_1)" fill-opacity="0.25"/>
  
  <!-- Floating icons -->
  <circle cx="150" cy="400" r="15" fill="#E4405F" fill-opacity="0.6"/>
  <circle cx="100" cy="650" r="20" fill="#4267B2" fill-opacity="0.5"/>
  <circle cx="1050" cy="300" r="25" fill="#FF9800" fill-opacity="0.4"/>
  <circle cx="1000" cy="500" r="15" fill="#00F2EA" fill-opacity="0.6"/>
  
  <defs>
    <radialGradient id="paint0_radial_0_1" cx="0" cy="0" r="1" gradientUnits="userSpaceOnUse" gradientTransform="translate(100 170) rotate(90) scale(50)">
      <stop stop-color="#E4405F"/>
      <stop offset="1" stop-color="#E4405F" stop-opacity="0"/>
    </radialGradient>
    <radialGradient id="paint1_radial_0_1" cx="0" cy="0" r="1" gradientUnits="userSpaceOnUse" gradientTransform="translate(1100 600) rotate(90) scale(80)">
      <stop stop-color="#4267B2"/>
      <stop offset="1" stop-color="#4267B2" stop-opacity="0"/>
    </radialGradient>
    <radialGradient id="paint2_radial_0_1" cx="0" cy="0" r="1" gradientUnits="userSpaceOnUse" gradientTransform="translate(980 200) rotate(90) scale(60)">
      <stop stop-color="#FF9800"/>
      <stop offset="1" stop-color="#FF9800" stop-opacity="0"/>
    </radialGradient>
  </defs>
</svg>