<svg width="1200" height="800" viewBox="0 0 1200 800" fill="none" xmlns="http://www.w3.org/2000/svg">
  <rect width="1200" height="800" fill="#0F172A"/>
  <!-- Grid pattern -->
  <path d="M0 50H1200" stroke="#3B82F6" stroke-width="0.5" stroke-opacity="0.1"/>
  <path d="M0 150H1200" stroke="#3B82F6" stroke-width="0.5" stroke-opacity="0.1"/>
  <path d="M0 250H1200" stroke="#3B82F6" stroke-width="0.5" stroke-opacity="0.1"/>
  <path d="M0 350H1200" stroke="#3B82F6" stroke-width="0.5" stroke-opacity="0.1"/>
  <path d="M0 450H1200" stroke="#3B82F6" stroke-width="0.5" stroke-opacity="0.1"/>
  <path d="M0 550H1200" stroke="#3B82F6" stroke-width="0.5" stroke-opacity="0.1"/>
  <path d="M0 650H1200" stroke="#3B82F6" stroke-width="0.5" stroke-opacity="0.1"/>
  <path d="M0 750H1200" stroke="#3B82F6" stroke-width="0.5" stroke-opacity="0.1"/>
  
  <path d="M50 0V800" stroke="#3B82F6" stroke-width="0.5" stroke-opacity="0.1"/>
  <path d="M150 0V800" stroke="#3B82F6" stroke-width="0.5" stroke-opacity="0.1"/>
  <path d="M250 0V800" stroke="#3B82F6" stroke-width="0.5" stroke-opacity="0.1"/>
  <path d="M350 0V800" stroke="#3B82F6" stroke-width="0.5" stroke-opacity="0.1"/>
  <path d="M450 0V800" stroke="#3B82F6" stroke-width="0.5" stroke-opacity="0.1"/>
  <path d="M550 0V800" stroke="#3B82F6" stroke-width="0.5" stroke-opacity="0.1"/>
  <path d="M650 0V800" stroke="#3B82F6" stroke-width="0.5" stroke-opacity="0.1"/>
  <path d="M750 0V800" stroke="#3B82F6" stroke-width="0.5" stroke-opacity="0.1"/>
  <path d="M850 0V800" stroke="#3B82F6" stroke-width="0.5" stroke-opacity="0.1"/>
  <path d="M950 0V800" stroke="#3B82F6" stroke-width="0.5" stroke-opacity="0.1"/>
  <path d="M1050 0V800" stroke="#3B82F6" stroke-width="0.5" stroke-opacity="0.1"/>
  <path d="M1150 0V800" stroke="#3B82F6" stroke-width="0.5" stroke-opacity="0.1"/>
  
  <!-- Wireframe website mockup -->
  <rect x="250" y="150" width="700" height="450" rx="8" fill="#1E293B" stroke="#3B82F6" stroke-width="2" stroke-opacity="0.5"/>
  <rect x="250" y="150" width="700" height="50" rx="8" fill="#1E293B" stroke="#3B82F6" stroke-width="2" stroke-opacity="0.5"/>
  <circle cx="280" cy="175" r="8" fill="#3B82F6" fill-opacity="0.5"/>
  <circle cx="310" cy="175" r="8" fill="#3B82F6" fill-opacity="0.5"/>
  <circle cx="340" cy="175" r="8" fill="#3B82F6" fill-opacity="0.5"/>
  
  <!-- Nav items -->
  <rect x="500" y="165" width="60" height="20" rx="4" fill="#3B82F6" fill-opacity="0.2"/>
  <rect x="580" y="165" width="60" height="20" rx="4" fill="#3B82F6" fill-opacity="0.2"/>
  <rect x="660" y="165" width="60" height="20" rx="4" fill="#3B82F6" fill-opacity="0.2"/>
  <rect x="740" y="165" width="100" height="30" rx="4" fill="#3B82F6" fill-opacity="0.6"/>
  
  <!-- Hero section -->
  <rect x="280" y="230" width="300" height="40" rx="4" fill="#3B82F6" fill-opacity="0.4"/>
  <rect x="280" y="280" width="400" height="20" rx="4" fill="#3B82F6" fill-opacity="0.2"/>
  <rect x="280" y="310" width="380" height="20" rx="4" fill="#3B82F6" fill-opacity="0.2"/>
  <rect x="280" y="360" width="150" height="40" rx="20" fill="#3B82F6" fill-opacity="0.8"/>
  
  <!-- Image placeholder -->
  <rect x="700" y="230" width="200" height="170" rx="8" fill="#3B82F6" fill-opacity="0.3"/>
  
  <!-- Content sections -->
  <rect x="280" y="450" width="640" height="1" fill="#3B82F6" fill-opacity="0.3"/>
  
  <rect x="280" y="480" width="200" height="30" rx="4" fill="#3B82F6" fill-opacity="0.3"/>
  <rect x="280" y="520" width="640" height="10" rx="4" fill="#3B82F6" fill-opacity="0.2"/>
  <rect x="280" y="540" width="580" height="10" rx="4" fill="#3B82F6" fill-opacity="0.2"/>
  <rect x="280" y="560" width="620" height="10" rx="4" fill="#3B82F6" fill-opacity="0.2"/>
  
  <!-- Decorative elements -->
  <circle cx="160" cy="200" r="100" fill="url(#paint0_radial_0_1)" fill-opacity="0.15"/>
  <circle cx="950" cy="600" r="120" fill="url(#paint1_radial_0_1)" fill-opacity="0.1"/>
  
  <defs>
    <radialGradient id="paint0_radial_0_1" cx="0" cy="0" r="1" gradientUnits="userSpaceOnUse" gradientTransform="translate(160 200) rotate(90) scale(100)">
      <stop stop-color="#3B82F6"/>
      <stop offset="1" stop-color="#3B82F6" stop-opacity="0"/>
    </radialGradient>
    <radialGradient id="paint1_radial_0_1" cx="0" cy="0" r="1" gradientUnits="userSpaceOnUse" gradientTransform="translate(950 600) rotate(90) scale(120)">
      <stop stop-color="#3B82F6"/>
      <stop offset="1" stop-color="#3B82F6" stop-opacity="0"/>
    </radialGradient>
  </defs>
</svg>