<svg xmlns="http://www.w3.org/2000/svg" viewBox="0 0 100 100" width="100" height="100">
  <!-- Circle background -->
  <circle cx="50" cy="50" r="45" fill="#1F5C3D" />
  
  <!-- House icon -->
  <path d="M50 20L25 40V75H75V40L50 20Z" fill="#ffffff" />
  
  <!-- Roof details -->
  <path d="M50 20L25 40H75L50 20Z" fill="#4CAF50" />
  
  <!-- Door -->
  <rect x="43" y="55" width="14" height="20" fill="#1F5C3D" />
  
  <!-- Window -->
  <rect x="35" y="45" width="10" height="10" fill="#81C784" />
  <rect x="55" y="45" width="10" height="10" fill="#81C784" />
  
  <!-- Leaf element -->
  <path d="M60 30C65 25 72 28 75 32C72 35 67 36 60 30Z" fill="#4CAF50" />
  
  <!-- Path element -->
  <path d="M40 75C40 65 45 65 50 60C55 65 60 65 60 75" fill="#8D6E63" stroke="#8D6E63" stroke-width="2" />
</svg>